<?xml version="1.0" standalone="no"?>
<!DOCTYPE svg PUBLIC "-//W3C//DTD SVG 20010904//EN"
 "http://www.w3.org/TR/2001/REC-SVG-20010904/DTD/svg10.dtd">
<svg version="1.0" xmlns="http://www.w3.org/2000/svg"
 width="2400.000000pt" height="907.000000pt" viewBox="0 0 2400.000000 907.000000"
 preserveAspectRatio="xMidYMid meet">
<metadata>
Created by potrace 1.16, written by Peter Selinger 2001-2019
</metadata>
<g transform="translate(0.000000,907.000000) scale(0.100000,-0.100000)"
fill="#000000" stroke="none">
<path d="M7752 6563 c-5 -16 -224 -615 -487 -1333 -263 -718 -480 -1313 -482
-1322 -5 -17 21 -18 438 -18 l444 0 56 188 57 187 471 3 c259 1 471 1 471 -1
0 -2 25 -86 55 -187 30 -101 55 -185 55 -187 0 -2 207 -3 461 -3 365 0 460 3
456 13 -2 6 -224 614 -492 1350 l-488 1337 -503 0 -502 0 -10 -27z m512 -750
c46 -152 266 -915 266 -923 0 -7 -95 -10 -286 -10 -259 0 -286 2 -280 16 3 9
65 215 137 458 71 242 132 449 135 459 3 9 9 17 14 17 5 0 11 -8 14 -17z"/>
<path d="M10067 6584 c-4 -4 -7 -612 -7 -1351 l0 -1343 435 0 435 0 0 434 0
434 398 4 c369 4 403 6 477 26 101 27 243 97 317 157 127 100 239 278 286 454
22 85 25 117 26 271 1 150 -2 188 -22 264 -69 275 -249 487 -496 586 -162 65
-131 63 -1026 67 -449 2 -819 1 -823 -3z m1336 -654 c48 -14 102 -62 130 -114
29 -55 31 -208 4 -278 -21 -55 -80 -112 -134 -129 -22 -7 -127 -14 -255 -16
l-218 -5 0 282 0 283 218 -6 c119 -3 234 -10 255 -17z"/>
<path d="M12900 5718 c0 -947 1 -965 56 -1140 80 -252 254 -453 501 -577 241
-121 587 -176 943 -152 386 27 673 135 873 330 146 141 226 289 280 516 20 88
21 112 24 993 l4 902 -433 -2 -433 -3 -5 -870 c-5 -861 -5 -871 -27 -927 -31
-81 -40 -96 -97 -156 -172 -183 -513 -187 -689 -10 -57 58 -87 111 -114 203
-15 55 -17 136 -21 913 l-3 852 -430 0 -429 0 0 -872z"/>
</g>
</svg>
